<svg width="34" height="34" viewBox="0 0 34 34" fill="none" xmlns="http://www.w3.org/2000/svg">
<path d="M32.71 16.2903L17.71 1.2903C17.5227 1.10405 17.2692 0.999512 17.005 0.999512C16.7408 0.999512 16.4874 1.10405 16.3 1.2903L1.30003 16.2903C1.1362 16.4816 1.05059 16.7277 1.06032 16.9794C1.07004 17.231 1.17437 17.4698 1.35246 17.6479C1.53056 17.826 1.7693 17.9303 2.02097 17.94C2.27265 17.9497 2.51873 17.8641 2.71003 17.7003L17 3.4103L31.29 17.7103C31.4813 17.8741 31.7274 17.9597 31.9791 17.95C32.2308 17.9403 32.4695 17.836 32.6476 17.6579C32.8257 17.4798 32.93 17.241 32.9397 16.9894C32.9495 16.7377 32.8639 16.4916 32.7 16.3003L32.71 16.2903Z" fill="black"/>
<path d="M27 31.0003H22V21.0003H12V31.0003H7.00003V17.0003L5.00003 19.0003V31.0003C5.00003 31.5307 5.21074 32.0394 5.58581 32.4145C5.96089 32.7896 6.46959 33.0003 7.00003 33.0003H14V23.0003H20V33.0003H27C27.5305 33.0003 28.0392 32.7896 28.4142 32.4145C28.7893 32.0394 29 31.5307 29 31.0003V18.7603L27 16.7603V31.0003Z" fill="black"/>
</svg>
