<svg width="36" height="37" viewBox="0 0 36 37" fill="none" xmlns="http://www.w3.org/2000/svg">
<path d="M18 2.48706C9.30234 2.48706 2.25 9.5394 2.25 18.2371C2.25 26.9347 9.30234 33.9871 18 33.9871C26.6977 33.9871 33.75 26.9347 33.75 18.2371C33.75 9.5394 26.6977 2.48706 18 2.48706ZM18 31.3152C10.7789 31.3152 4.92188 25.4582 4.92188 18.2371C4.92188 11.016 10.7789 5.15894 18 5.15894C25.2211 5.15894 31.0781 11.016 31.0781 18.2371C31.0781 25.4582 25.2211 31.3152 18 31.3152Z" fill="#868282"/>
<path d="M16.3125 12.0496C16.3125 12.4971 16.4903 12.9263 16.8068 13.2428C17.1232 13.5593 17.5524 13.7371 18 13.7371C18.4476 13.7371 18.8768 13.5593 19.1932 13.2428C19.5097 12.9263 19.6875 12.4971 19.6875 12.0496C19.6875 11.602 19.5097 11.1728 19.1932 10.8563C18.8768 10.5398 18.4476 10.3621 18 10.3621C17.5524 10.3621 17.1232 10.5398 16.8068 10.8563C16.4903 11.1728 16.3125 11.602 16.3125 12.0496ZM18.8438 15.9871H17.1562C17.0016 15.9871 16.875 16.1136 16.875 16.2683V25.8308C16.875 25.9855 17.0016 26.1121 17.1562 26.1121H18.8438C18.9984 26.1121 19.125 25.9855 19.125 25.8308V16.2683C19.125 16.1136 18.9984 15.9871 18.8438 15.9871Z" fill="#868282"/>
</svg>
