<svg width="35" height="34" viewBox="0 0 35 34" fill="none" xmlns="http://www.w3.org/2000/svg">
<path d="M24.723 20.3534C24.6985 20.3274 24.6795 20.2965 24.667 20.2625C24.6546 20.2285 24.649 20.1921 24.6505 20.1555L24.7837 15.9494C24.7845 15.9126 24.7925 15.8761 24.8071 15.842C24.8218 15.8079 24.8429 15.777 24.8692 15.751C24.8955 15.725 24.9264 15.7044 24.9602 15.6906C24.9939 15.6767 25.0299 15.6698 25.0659 15.6702L28.2555 15.6761C28.3288 15.6755 28.3952 15.7062 28.4454 15.757C28.4942 15.8103 28.5219 15.8813 28.5178 15.955L28.3846 20.161C28.3836 20.2047 28.3717 20.246 28.3526 20.2836C28.3385 20.3112 28.3196 20.3363 28.2984 20.3601C28.2447 20.4117 28.1744 20.4422 28.1025 20.4402L24.9104 20.4331C24.842 20.4361 24.7718 20.4067 24.723 20.3534ZM29.0266 20.1662L29.1598 15.9601C29.1606 15.9233 29.1686 15.8868 29.1833 15.8527C29.1979 15.8186 29.219 15.7877 29.2453 15.7617C29.2716 15.7357 29.3025 15.7151 29.3363 15.7013C29.37 15.6874 29.406 15.6805 29.442 15.6809L32.6341 15.688C32.7073 15.6875 32.7738 15.7182 32.8239 15.769C32.8728 15.8223 32.9005 15.8932 32.8964 15.9669L32.7631 20.173C32.7606 20.247 32.7295 20.318 32.6767 20.3703C32.6238 20.4226 32.5535 20.4521 32.481 20.4522L29.2889 20.445C29.2531 20.4453 29.2178 20.4383 29.1851 20.4244C29.1525 20.4105 29.123 20.3899 29.0986 20.3639C29.0741 20.3379 29.0552 20.307 29.0428 20.2731C29.0304 20.2391 29.0249 20.2028 29.0266 20.1662Z" fill="black"/>
<path d="M2.05017 17.8508L2.2042 13.043C2.23298 12.1391 2.45373 11.2762 2.86232 10.4743C3.66801 8.89305 5.13402 7.75241 6.78574 7.42292C6.83358 7.41258 6.88625 7.40469 6.93522 7.39808L7.08102 7.37452C7.14718 7.36403 7.21092 7.35232 7.27821 7.34557C7.46418 7.32669 7.64874 7.31656 7.82209 7.31651C7.99785 7.31768 8.1783 7.32755 8.36216 7.34863C8.42789 7.35687 8.49235 7.36762 8.55681 7.37837L8.70035 7.401C8.75146 7.40811 8.8013 7.41771 8.84872 7.42609C11.3847 7.95118 13.1614 10.3243 13.0731 13.0697L13.0565 13.5915L34.2084 13.643C34.2816 13.6424 34.3481 13.6731 34.3982 13.7239C34.4471 13.7772 34.4748 13.8482 34.4707 13.9218L34.3672 17.1267C34.3647 17.2008 34.3336 17.2717 34.2807 17.324C34.2279 17.3763 34.1575 17.4058 34.0851 17.4059L12.9332 17.3544L12.9166 17.8763C12.8879 18.7802 12.6671 19.6431 12.2585 20.445C11.4528 22.0262 9.98682 23.1669 8.3351 23.4963C8.28726 23.5067 8.2346 23.5146 8.18562 23.5212L8.03741 23.5435C7.97367 23.5552 7.90751 23.5657 7.84391 23.5712C7.48238 23.6112 7.11884 23.6102 6.75996 23.5681C6.69422 23.5599 6.63218 23.5504 6.56772 23.5396L6.41935 23.5145C6.37065 23.5087 6.32082 23.4991 6.27467 23.4882C3.73988 22.9668 1.96312 20.5937 2.05017 17.8508ZM8.72345 15.2568L9.45365 14.5935C10.048 14.0535 10.393 13.3108 10.4195 12.513C10.4627 11.1809 9.57327 10.0143 8.31105 9.7405C8.28918 9.73567 8.26973 9.73208 8.24659 9.72975L8.18454 9.72024C8.13954 9.71309 8.09581 9.70343 8.04952 9.69879C7.94843 9.68832 7.84848 9.68158 7.7447 9.68236C7.64092 9.68315 7.53828 9.68766 7.4416 9.69838C7.3939 9.70248 7.34734 9.71032 7.27621 9.72459L7.23945 9.73111C7.21986 9.73375 7.19657 9.73767 7.1794 9.74154C6.34296 9.9151 5.60747 10.4873 5.20782 11.2717C5.01119 11.6576 4.90301 12.0728 4.88968 12.5048C4.86327 13.3025 5.16039 14.0442 5.72322 14.5867L6.41145 15.253C6.46641 15.3062 6.49526 15.3809 6.4923 15.4583C6.48935 15.5357 6.45473 15.6096 6.3974 15.6625L5.66719 16.3258C5.07281 16.8657 4.7278 17.6085 4.70139 18.4063C4.65814 19.7384 5.54757 20.905 6.80979 21.1788C6.83166 21.1836 6.8548 21.1859 6.87667 21.1907L6.92409 21.1991C6.97151 21.2075 7.02134 21.2171 7.07004 21.223C7.17113 21.2335 7.27108 21.2402 7.37486 21.2394C7.47864 21.2386 7.58128 21.2341 7.67796 21.2234C7.72325 21.2181 7.76612 21.2115 7.809 21.2049L7.93889 21.1827C8.77532 21.0092 9.51081 20.437 9.91047 19.6526C10.107 19.2691 10.2159 18.8472 10.2286 18.4195C10.255 17.6217 9.95789 16.8801 9.39507 16.3376L8.70684 15.6713C8.67989 15.6452 8.65876 15.6134 8.64484 15.5781C8.63091 15.5427 8.62449 15.5045 8.62599 15.466C8.62723 15.4234 8.6382 15.3814 8.65803 15.3434C8.6759 15.3083 8.69847 15.2819 8.72345 15.2568Z" fill="black"/>
<path d="M13.9848 18.0892L14.1521 12.8556C14.1537 12.7807 14.1858 12.7118 14.237 12.659C14.2907 12.6075 14.361 12.577 14.4329 12.5789L15.9331 12.5826C15.9691 12.5826 16.0044 12.5898 16.0372 12.6039C16.07 12.618 16.0995 12.6386 16.1241 12.6647C16.1487 12.6907 16.1679 12.7216 16.1805 12.7556C16.1932 12.7895 16.1991 12.8259 16.1979 12.8627L16.0306 18.0963C16.0297 18.1399 16.0178 18.1812 15.9986 18.2188C15.9846 18.2464 15.9657 18.2715 15.9444 18.2954C15.8908 18.3469 15.8205 18.3774 15.7485 18.3755L14.2483 18.3718C14.0982 18.3679 13.9789 18.244 13.9848 18.0892ZM17.5138 18.0976L17.681 12.864C17.6827 12.7891 17.7148 12.7202 17.766 12.6674C17.8197 12.6158 17.8899 12.5853 17.9619 12.5873L19.4621 12.5909C19.498 12.5909 19.5334 12.5982 19.5662 12.6123C19.5989 12.6263 19.6285 12.647 19.6531 12.673C19.6777 12.699 19.6968 12.7299 19.7095 12.7639C19.7222 12.7979 19.7281 12.8343 19.7269 12.871L19.5596 18.1046C19.5571 18.1787 19.526 18.2496 19.4731 18.302C19.4203 18.3543 19.3499 18.3837 19.2775 18.3838L17.7773 18.3801C17.704 18.3807 17.6376 18.35 17.5874 18.2992C17.5374 18.2422 17.5097 18.1712 17.5138 18.0976Z" fill="black"/>
</svg>
