<svg width="167" height="12" viewBox="0 0 167 12" fill="none" xmlns="http://www.w3.org/2000/svg">
<path d="M6.24756 4.86963L9.74121 9.24219C10.2344 9.85742 10.6592 10.2749 11.0156 10.4946C11.2744 10.6509 11.5479 10.729 11.8359 10.729V11H6.66504V10.729C6.99219 10.6997 7.20215 10.6484 7.29492 10.5752C7.39258 10.502 7.44141 10.4116 7.44141 10.3042C7.44141 10.0991 7.2168 9.71338 6.76758 9.14697L4.48975 6.2832L4.12354 6.59082V9.30078C4.12354 9.81836 4.15283 10.1406 4.21143 10.2676C4.27002 10.3945 4.38232 10.5044 4.54834 10.5972C4.71436 10.6851 4.98047 10.729 5.34668 10.729V11H0.336914V10.729H0.666504C0.95459 10.729 1.18652 10.6777 1.3623 10.5752C1.48926 10.5068 1.58691 10.3896 1.65527 10.2236C1.70898 10.1064 1.73584 9.79883 1.73584 9.30078V2.76758C1.73584 2.25977 1.70898 1.94238 1.65527 1.81543C1.60156 1.68848 1.4917 1.57861 1.32568 1.48584C1.16455 1.38818 0.944824 1.33936 0.666504 1.33936H0.336914V1.06836H5.28076V1.33936C4.94385 1.33936 4.6875 1.38818 4.51172 1.48584C4.38477 1.5542 4.28467 1.66895 4.21143 1.83008C4.15283 1.95215 4.12354 2.26465 4.12354 2.76758V5.8584L7.80762 2.87744C8.32031 2.4624 8.57666 2.13037 8.57666 1.88135C8.57666 1.6958 8.47168 1.54932 8.26172 1.44189C8.1543 1.38818 7.88818 1.354 7.46338 1.33936V1.06836H11.3379V1.33936C10.9912 1.36377 10.7178 1.42725 10.5176 1.52979C10.3223 1.62744 9.86816 1.96436 9.15527 2.54053L6.24756 4.86963ZM15.7617 1.63965V5.68262H15.9595C16.5894 5.68262 17.0459 5.48486 17.3291 5.08936C17.6123 4.69385 17.793 4.11035 17.8711 3.33887H18.1494V8.53906H17.8711C17.8125 7.97266 17.688 7.50879 17.4976 7.14746C17.312 6.78613 17.0947 6.54443 16.8457 6.42236C16.5967 6.29541 16.2354 6.23193 15.7617 6.23193V9.02979C15.7617 9.57666 15.7837 9.91113 15.8276 10.0332C15.8765 10.1553 15.9644 10.2554 16.0913 10.3335C16.2183 10.4116 16.4233 10.4507 16.7065 10.4507H17.2998C18.2275 10.4507 18.9697 10.2358 19.5264 9.80615C20.0879 9.37646 20.4907 8.72217 20.7349 7.84326H21.0059L20.5591 11H11.9751V10.729H12.3047C12.5928 10.729 12.8247 10.6777 13.0005 10.5752C13.1274 10.5068 13.2251 10.3896 13.2935 10.2236C13.3472 10.1064 13.374 9.79883 13.374 9.30078V2.76758C13.374 2.31836 13.3618 2.04248 13.3374 1.93994C13.2886 1.76904 13.1982 1.63721 13.0664 1.54443C12.8809 1.40771 12.627 1.33936 12.3047 1.33936H11.9751V1.06836H20.2881V4.00537H20.0098C19.8682 3.2876 19.668 2.77246 19.4092 2.45996C19.1553 2.14746 18.7939 1.91797 18.3252 1.77148C18.0518 1.68359 17.5391 1.63965 16.7871 1.63965H15.7617ZM32.3438 1.06836V1.33936C32.0166 1.3833 31.7651 1.47852 31.5894 1.625C31.3452 1.83008 30.9595 2.38916 30.4321 3.30225L28.2788 6.89844V9.30078C28.2788 9.81348 28.3057 10.1333 28.3594 10.2603C28.4131 10.3823 28.5181 10.4922 28.6743 10.5898C28.8354 10.6826 29.0479 10.729 29.3115 10.729H29.8682V11H24.2944V10.729H24.8145C25.1074 10.729 25.3394 10.6777 25.5103 10.5752C25.6372 10.5068 25.7373 10.3896 25.8105 10.2236C25.8643 10.1064 25.8911 9.79883 25.8911 9.30078V7.30859L23.5547 3.05322C23.0908 2.21338 22.7637 1.72021 22.5732 1.57373C22.3828 1.42236 22.1289 1.34424 21.8115 1.33936V1.06836H26.5723V1.33936H26.3599C26.0718 1.33936 25.8691 1.38086 25.752 1.46387C25.6396 1.54688 25.5835 1.63477 25.5835 1.72754C25.5835 1.90332 25.7788 2.34521 26.1694 3.05322L27.9639 6.3418L29.751 3.34619C30.1953 2.61377 30.4175 2.12793 30.4175 1.88867C30.4175 1.75684 30.354 1.64697 30.2271 1.55908C30.061 1.43701 29.7559 1.36377 29.3115 1.33936V1.06836H32.3438ZM48.9331 7.51367L48.5596 11H39.7412V10.729H40.0708C40.3589 10.729 40.5908 10.6777 40.7666 10.5752C40.8936 10.5068 40.9912 10.3896 41.0596 10.2236C41.1133 10.1064 41.1401 9.79883 41.1401 9.30078V2.76758C41.1401 2.25977 41.1133 1.94238 41.0596 1.81543C41.0059 1.68848 40.896 1.57861 40.73 1.48584C40.5688 1.38818 40.3491 1.33936 40.0708 1.33936H39.7412V1.06836H45.0366V1.33936H44.6045C44.3164 1.33936 44.0845 1.39062 43.9087 1.49316C43.7817 1.56152 43.6816 1.67871 43.6084 1.84473C43.5547 1.96191 43.5278 2.26953 43.5278 2.76758V9.0957C43.5278 9.60352 43.5571 9.92822 43.6157 10.0698C43.6743 10.2065 43.7891 10.3091 43.96 10.3774C44.082 10.4214 44.3774 10.4434 44.8462 10.4434H45.6738C46.2012 10.4434 46.6406 10.3506 46.9922 10.165C47.3438 9.97949 47.6465 9.68652 47.9004 9.28613C48.1592 8.88574 48.4033 8.29492 48.6328 7.51367H48.9331ZM55.2612 0.929199C56.8433 0.870605 58.1274 1.33203 59.1138 2.31348C60.105 3.29492 60.6006 4.52295 60.6006 5.99756C60.6006 7.25732 60.2319 8.36572 59.4946 9.32275C58.5181 10.5923 57.1387 11.2271 55.3564 11.2271C53.5693 11.2271 52.1875 10.6216 51.2109 9.41064C50.4395 8.45361 50.0537 7.31836 50.0537 6.00488C50.0537 4.53027 50.5542 3.30225 51.5552 2.3208C52.561 1.33447 53.7964 0.870605 55.2612 0.929199ZM55.3491 1.39795C54.4409 1.39795 53.75 1.86182 53.2764 2.78955C52.8906 3.55127 52.6978 4.64502 52.6978 6.0708C52.6978 7.76514 52.9956 9.01758 53.5913 9.82812C54.0063 10.3945 54.5874 10.6777 55.3345 10.6777C55.8374 10.6777 56.2573 10.5557 56.5942 10.3115C57.0239 9.99902 57.3584 9.50098 57.5977 8.81738C57.8369 8.12891 57.9565 7.23291 57.9565 6.12939C57.9565 4.81592 57.8345 3.83447 57.5903 3.18506C57.3462 2.53076 57.0337 2.06934 56.6528 1.80078C56.2769 1.53223 55.8423 1.39795 55.3491 1.39795ZM64.8779 1.06836L69.7778 7.22803V2.95801C69.7778 2.3623 69.6924 1.95947 69.5215 1.74951C69.2871 1.46631 68.894 1.32959 68.3423 1.33936V1.06836H71.6235V1.33936C71.2036 1.39307 70.9204 1.46387 70.7739 1.55176C70.6323 1.63477 70.52 1.77393 70.437 1.96924C70.3589 2.15967 70.3198 2.48926 70.3198 2.95801V11.2271H70.0708L63.3545 2.95801V9.27148C63.3545 9.84277 63.4839 10.2285 63.7427 10.4287C64.0063 10.6289 64.3066 10.729 64.6436 10.729H64.8779V11H61.355V10.729C61.9019 10.7241 62.2827 10.6118 62.4976 10.3921C62.7124 10.1724 62.8198 9.79883 62.8198 9.27148V2.26221L62.6074 1.99854C62.3975 1.73486 62.2119 1.56152 62.0508 1.47852C61.8896 1.39551 61.6577 1.34912 61.355 1.33936V1.06836H64.8779ZM72.1802 11V10.729H72.5098C72.7979 10.729 73.0176 10.6851 73.1689 10.5972C73.3252 10.5044 73.4399 10.3799 73.5132 10.2236C73.5571 10.1211 73.5791 9.81348 73.5791 9.30078V2.76758C73.5791 2.25977 73.5522 1.94238 73.4985 1.81543C73.4448 1.68848 73.335 1.57861 73.1689 1.48584C73.0078 1.38818 72.7881 1.33936 72.5098 1.33936H72.1802V1.06836H76.626C77.8125 1.06836 78.7671 1.22949 79.4897 1.55176C80.3735 1.94727 81.0425 2.54541 81.4966 3.34619C81.9556 4.14697 82.1851 5.05273 82.1851 6.06348C82.1851 6.76172 82.0728 7.40625 81.8481 7.99707C81.6235 8.58301 81.333 9.06885 80.9766 9.45459C80.6201 9.83545 80.2075 10.1431 79.7388 10.3774C79.2749 10.6069 78.7061 10.7852 78.0322 10.9121C77.7344 10.9707 77.2656 11 76.626 11H72.1802ZM75.9668 1.63232V9.38135C75.9668 9.7915 75.9863 10.043 76.0254 10.1357C76.0645 10.2285 76.1304 10.2993 76.2231 10.3481C76.355 10.4214 76.5454 10.458 76.7944 10.458C77.6099 10.458 78.2324 10.1797 78.6621 9.62305C79.248 8.87109 79.541 7.7041 79.541 6.12207C79.541 4.84766 79.3408 3.82959 78.9404 3.06787C78.623 2.47217 78.2153 2.06689 77.7173 1.85205C77.3657 1.70068 76.7822 1.62744 75.9668 1.63232ZM88.6157 0.929199C90.1978 0.870605 91.4819 1.33203 92.4683 2.31348C93.4595 3.29492 93.9551 4.52295 93.9551 5.99756C93.9551 7.25732 93.5864 8.36572 92.8491 9.32275C91.8726 10.5923 90.4932 11.2271 88.7109 11.2271C86.9238 11.2271 85.542 10.6216 84.5654 9.41064C83.7939 8.45361 83.4082 7.31836 83.4082 6.00488C83.4082 4.53027 83.9087 3.30225 84.9097 2.3208C85.9155 1.33447 87.1509 0.870605 88.6157 0.929199ZM88.7036 1.39795C87.7954 1.39795 87.1045 1.86182 86.6309 2.78955C86.2451 3.55127 86.0522 4.64502 86.0522 6.0708C86.0522 7.76514 86.3501 9.01758 86.9458 9.82812C87.3608 10.3945 87.9419 10.6777 88.689 10.6777C89.1919 10.6777 89.6118 10.5557 89.9487 10.3115C90.3784 9.99902 90.7129 9.50098 90.9521 8.81738C91.1914 8.12891 91.311 7.23291 91.311 6.12939C91.311 4.81592 91.189 3.83447 90.9448 3.18506C90.7007 2.53076 90.3882 2.06934 90.0073 1.80078C89.6313 1.53223 89.1968 1.39795 88.7036 1.39795ZM98.2324 1.06836L103.132 7.22803V2.95801C103.132 2.3623 103.047 1.95947 102.876 1.74951C102.642 1.46631 102.249 1.32959 101.697 1.33936V1.06836H104.978V1.33936C104.558 1.39307 104.275 1.46387 104.128 1.55176C103.987 1.63477 103.875 1.77393 103.792 1.96924C103.713 2.15967 103.674 2.48926 103.674 2.95801V11.2271H103.425L96.709 2.95801V9.27148C96.709 9.84277 96.8384 10.2285 97.0972 10.4287C97.3608 10.6289 97.6611 10.729 97.998 10.729H98.2324V11H94.7095V10.729C95.2563 10.7241 95.6372 10.6118 95.8521 10.3921C96.0669 10.1724 96.1743 9.79883 96.1743 9.27148V2.26221L95.9619 1.99854C95.752 1.73486 95.5664 1.56152 95.4053 1.47852C95.2441 1.39551 95.0122 1.34912 94.7095 1.33936V1.06836H98.2324ZM127.427 1.06836V1.33936C127.241 1.354 127.085 1.40527 126.958 1.49316C126.831 1.58105 126.719 1.71533 126.621 1.896C126.592 1.95459 126.438 2.33301 126.16 3.03125L123.047 11.2271H122.761L120.3 4.82568L117.59 11.2271H117.319L114.053 3.11914C113.721 2.30371 113.489 1.81055 113.357 1.63965C113.225 1.46875 113.003 1.36865 112.69 1.33936V1.06836H116.997V1.33936C116.65 1.34912 116.418 1.40283 116.301 1.50049C116.189 1.59326 116.133 1.71045 116.133 1.85205C116.133 2.0376 116.252 2.43066 116.492 3.03125L118.44 7.85059L120 4.08594L119.59 3.03125C119.365 2.45508 119.192 2.07178 119.07 1.88135C118.948 1.68604 118.806 1.54688 118.645 1.46387C118.489 1.38086 118.257 1.33936 117.949 1.33936V1.06836H122.761V1.33936C122.424 1.34424 122.183 1.37109 122.036 1.41992C121.934 1.4541 121.853 1.5127 121.794 1.5957C121.736 1.67383 121.707 1.76416 121.707 1.8667C121.707 1.979 121.816 2.32324 122.036 2.89941L123.845 7.60156L125.464 3.34619C125.635 2.90674 125.74 2.60645 125.779 2.44531C125.818 2.28418 125.837 2.13525 125.837 1.99854C125.837 1.79834 125.769 1.64209 125.632 1.52979C125.496 1.4126 125.234 1.34912 124.849 1.33936V1.06836H127.427ZM132.129 8.17285H128.621L128.203 9.13965C128.066 9.46191 127.998 9.72803 127.998 9.93799C127.998 10.2163 128.11 10.4214 128.335 10.5532C128.467 10.6313 128.792 10.6899 129.309 10.729V11H126.006V10.729C126.362 10.6753 126.655 10.5288 126.885 10.2896C127.114 10.0454 127.397 9.54492 127.734 8.78809L131.287 0.863281H131.426L135.007 9.00781C135.349 9.7793 135.63 10.2651 135.85 10.4653C136.016 10.6167 136.25 10.7046 136.553 10.729V11H131.748V10.729H131.946C132.332 10.729 132.603 10.6753 132.759 10.5679C132.866 10.4897 132.92 10.3774 132.92 10.231C132.92 10.1431 132.905 10.0527 132.876 9.95996C132.866 9.91602 132.793 9.73291 132.656 9.41064L132.129 8.17285ZM131.88 7.63086L130.4 4.21045L128.877 7.63086H131.88ZM146.199 7.51367L145.825 11H137.007V10.729H137.336C137.625 10.729 137.856 10.6777 138.032 10.5752C138.159 10.5068 138.257 10.3896 138.325 10.2236C138.379 10.1064 138.406 9.79883 138.406 9.30078V2.76758C138.406 2.25977 138.379 1.94238 138.325 1.81543C138.271 1.68848 138.162 1.57861 137.996 1.48584C137.834 1.38818 137.615 1.33936 137.336 1.33936H137.007V1.06836H142.302V1.33936H141.87C141.582 1.33936 141.35 1.39062 141.174 1.49316C141.047 1.56152 140.947 1.67871 140.874 1.84473C140.82 1.96191 140.793 2.26953 140.793 2.76758V9.0957C140.793 9.60352 140.823 9.92822 140.881 10.0698C140.94 10.2065 141.055 10.3091 141.226 10.3774C141.348 10.4214 141.643 10.4434 142.112 10.4434H142.939C143.467 10.4434 143.906 10.3506 144.258 10.165C144.609 9.97949 144.912 9.68652 145.166 9.28613C145.425 8.88574 145.669 8.29492 145.898 7.51367H146.199ZM152.981 4.86963L156.475 9.24219C156.968 9.85742 157.393 10.2749 157.749 10.4946C158.008 10.6509 158.281 10.729 158.569 10.729V11H153.398V10.729C153.726 10.6997 153.936 10.6484 154.028 10.5752C154.126 10.502 154.175 10.4116 154.175 10.3042C154.175 10.0991 153.95 9.71338 153.501 9.14697L151.223 6.2832L150.857 6.59082V9.30078C150.857 9.81836 150.886 10.1406 150.945 10.2676C151.003 10.3945 151.116 10.5044 151.282 10.5972C151.448 10.6851 151.714 10.729 152.08 10.729V11H147.07V10.729H147.4C147.688 10.729 147.92 10.6777 148.096 10.5752C148.223 10.5068 148.32 10.3896 148.389 10.2236C148.442 10.1064 148.469 9.79883 148.469 9.30078V2.76758C148.469 2.25977 148.442 1.94238 148.389 1.81543C148.335 1.68848 148.225 1.57861 148.059 1.48584C147.898 1.38818 147.678 1.33936 147.4 1.33936H147.07V1.06836H152.014V1.33936C151.677 1.33936 151.421 1.38818 151.245 1.48584C151.118 1.5542 151.018 1.66895 150.945 1.83008C150.886 1.95215 150.857 2.26465 150.857 2.76758V5.8584L154.541 2.87744C155.054 2.4624 155.31 2.13037 155.31 1.88135C155.31 1.6958 155.205 1.54932 154.995 1.44189C154.888 1.38818 154.622 1.354 154.197 1.33936V1.06836H158.071V1.33936C157.725 1.36377 157.451 1.42725 157.251 1.52979C157.056 1.62744 156.602 1.96436 155.889 2.54053L152.981 4.86963ZM165.454 0.841309L165.535 4.15186H165.234C165.093 3.32178 164.744 2.65527 164.187 2.15234C163.635 1.64453 163.037 1.39062 162.393 1.39062C161.895 1.39062 161.499 1.5249 161.206 1.79346C160.918 2.05713 160.774 2.3623 160.774 2.70898C160.774 2.92871 160.825 3.12402 160.928 3.29492C161.069 3.52441 161.296 3.75146 161.609 3.97607C161.838 4.13721 162.368 4.42285 163.198 4.83301C164.36 5.4043 165.144 5.94385 165.549 6.45166C165.95 6.95947 166.15 7.54053 166.15 8.19482C166.15 9.0249 165.825 9.74023 165.176 10.3408C164.531 10.9365 163.711 11.2344 162.715 11.2344C162.402 11.2344 162.107 11.2026 161.829 11.1392C161.55 11.0757 161.201 10.9561 160.781 10.7803C160.547 10.6826 160.354 10.6338 160.203 10.6338C160.076 10.6338 159.941 10.6826 159.8 10.7803C159.658 10.8779 159.543 11.0269 159.456 11.2271H159.185V7.47705H159.456C159.67 8.53174 160.083 9.3374 160.693 9.89404C161.309 10.4458 161.97 10.7217 162.678 10.7217C163.225 10.7217 163.66 10.5728 163.982 10.2749C164.309 9.97705 164.473 9.63037 164.473 9.23486C164.473 9.00049 164.409 8.77344 164.282 8.55371C164.16 8.33398 163.972 8.12646 163.718 7.93115C163.464 7.73096 163.015 7.47217 162.371 7.15479C161.467 6.71045 160.818 6.33203 160.422 6.01953C160.027 5.70703 159.722 5.35791 159.507 4.97217C159.297 4.58643 159.192 4.16162 159.192 3.69775C159.192 2.90674 159.482 2.23291 160.063 1.67627C160.645 1.11963 161.377 0.841309 162.261 0.841309C162.583 0.841309 162.896 0.880371 163.198 0.958496C163.428 1.01709 163.706 1.12695 164.033 1.28809C164.365 1.44434 164.597 1.52246 164.729 1.52246C164.856 1.52246 164.956 1.4834 165.029 1.40527C165.103 1.32715 165.171 1.13916 165.234 0.841309H165.454Z" fill="white"/>
</svg>
