<svg width="34" height="34" viewBox="0 0 34 34" fill="none" xmlns="http://www.w3.org/2000/svg">
<path d="M31.625 4.625H2.375C1.75273 4.625 1.25 5.12773 1.25 5.75V28.25C1.25 28.8723 1.75273 29.375 2.375 29.375H31.625C32.2473 29.375 32.75 28.8723 32.75 28.25V5.75C32.75 5.12773 32.2473 4.625 31.625 4.625ZM30.2188 8.52031V26.8438H3.78125V8.52031L2.81094 7.76445L4.19258 5.98906L5.69727 7.15977H28.3062L29.8109 5.98906L31.1926 7.76445L30.2188 8.52031ZM28.3062 7.15625L17 15.9453L5.69375 7.15625L4.18906 5.98555L2.80742 7.76094L3.77773 8.5168L15.7871 17.8543C16.1325 18.1226 16.5574 18.2683 16.9947 18.2683C17.4321 18.2683 17.857 18.1226 18.2023 17.8543L30.2188 8.52031L31.1891 7.76445L29.8074 5.98906L28.3062 7.15625Z" fill="black"/>
</svg>
