<svg width="34" height="34" viewBox="0 0 34 34" fill="none" xmlns="http://www.w3.org/2000/svg">
<path d="M29.707 20.7928L27 18.0858V14.4998C26.9969 12.0216 26.075 9.6326 24.4126 7.79474C22.7502 5.95687 20.4654 4.80069 18 4.54976V2.49976H16V4.54976C13.5346 4.80069 11.2498 5.95687 9.58737 7.79474C7.92498 9.6326 7.0031 12.0216 7 14.4998V18.0858L4.293 20.7928C4.10545 20.9802 4.00006 21.2346 4 21.4998V24.4998C4 24.765 4.10536 25.0193 4.29289 25.2069C4.48043 25.3944 4.73478 25.4998 5 25.4998H12V26.2768C11.9782 27.5454 12.4254 28.7774 13.2558 29.7368C14.0862 30.6962 15.2414 31.3154 16.5 31.4758C17.1952 31.5447 17.8971 31.4674 18.5606 31.2488C19.2241 31.0301 19.8345 30.6751 20.3525 30.2064C20.8706 29.7377 21.2848 29.1658 21.5685 28.5274C21.8522 27.889 21.9992 27.1983 22 26.4998V25.4998H29C29.2652 25.4998 29.5196 25.3944 29.7071 25.2069C29.8946 25.0193 30 24.765 30 24.4998V21.4998C29.9999 21.2346 29.8946 20.9802 29.707 20.7928ZM20 26.4998C20 27.2954 19.6839 28.0585 19.1213 28.6211C18.5587 29.1837 17.7956 29.4998 17 29.4998C16.2044 29.4998 15.4413 29.1837 14.8787 28.6211C14.3161 28.0585 14 27.2954 14 26.4998V25.4998H20V26.4998ZM28 23.4998H6V21.9138L8.707 19.2068C8.89455 19.0193 8.99994 18.7649 9 18.4998V14.4998C9 12.378 9.84285 10.3432 11.3431 8.8429C12.8434 7.34261 14.8783 6.49976 17 6.49976C19.1217 6.49976 21.1566 7.34261 22.6569 8.8429C24.1571 10.3432 25 12.378 25 14.4998V18.4998C25.0001 18.7649 25.1054 19.0193 25.293 19.2068L28 21.9138V23.4998Z" fill="black"/>
</svg>
