<svg width="44" height="34" viewBox="0 0 44 34" fill="none" xmlns="http://www.w3.org/2000/svg">
<path d="M40.2682 15.4372C35.2225 11.3473 28.8399 9.27263 22.3537 9.61414C15.8198 9.96297 9.64947 12.7305 5.04372 17.3782L3.81866 18.6032L8.28934 23.0739L13.7305 20.4329L12.8078 16.8372L12.06 14.2121L14.7488 13.4962C19.566 12.2173 24.6138 12.0703 29.4972 13.0666L32.4883 13.7348L31.5655 16.694L30.8019 19.1124L35.4316 20.2738L40.2682 15.4372ZM37.4204 22.2625C37.0747 22.603 36.6474 22.8491 36.1795 22.9773C35.7115 23.1054 35.2184 23.1113 34.7475 22.9944L30.1814 21.7693C29.8082 21.6796 29.4576 21.5138 29.1515 21.2824C28.8453 21.051 28.5902 20.759 28.402 20.4245C28.2139 20.09 28.0968 19.7203 28.058 19.3385C28.0192 18.9567 28.0596 18.571 28.1767 18.2055L28.9404 15.7872C24.4823 14.8813 19.8747 15.0229 15.4806 16.2008L16.3238 19.8442C16.4424 20.2904 16.4492 20.759 16.3438 21.2085C16.2383 21.658 16.0239 22.0746 15.7193 22.4216C15.4975 22.6443 15.2392 22.8273 14.9556 22.9625L9.43485 25.6831C8.91116 25.9099 8.33088 25.972 7.77106 25.8612C7.21125 25.7504 6.69839 25.4719 6.3006 25.0627L1.76628 20.5283C1.23883 20.0009 0.942519 19.2855 0.942519 18.5396C0.942519 17.7937 1.23883 17.0783 1.76628 16.5509L2.95952 15.3576C8.06441 10.25 14.8783 7.21134 22.0893 6.82655C29.3004 6.44176 36.3989 8.73807 42.0183 13.2734C42.3224 13.5244 42.5708 13.836 42.7476 14.1884C42.9244 14.5408 43.0258 14.9261 43.0453 15.3199C43.0647 15.7137 43.0019 16.1072 42.8606 16.4753C42.7194 16.8434 42.503 17.178 42.2252 17.4577L37.4204 22.2625Z" fill="black"/>
</svg>
