<svg width="36" height="37" viewBox="0 0 36 37" fill="none" xmlns="http://www.w3.org/2000/svg">
<path d="M18 2.73364C9.30234 2.73364 2.25 9.78599 2.25 18.4836C2.25 27.1813 9.30234 34.2336 18 34.2336C26.6977 34.2336 33.75 27.1813 33.75 18.4836C33.75 9.78599 26.6977 2.73364 18 2.73364ZM18 31.5618C10.7789 31.5618 4.92188 25.7047 4.92188 18.4836C4.92188 11.2625 10.7789 5.40552 18 5.40552C25.2211 5.40552 31.0781 11.2625 31.0781 18.4836C31.0781 25.7047 25.2211 31.5618 18 31.5618Z" fill="#868282"/>
<path d="M21.9234 11.6176C20.8687 10.693 19.4766 10.1868 18 10.1868C16.5234 10.1868 15.1312 10.6965 14.0766 11.6176C12.9797 12.5774 12.375 13.8676 12.375 15.2493V15.5165C12.375 15.6711 12.5016 15.7977 12.6562 15.7977H14.3438C14.4984 15.7977 14.625 15.6711 14.625 15.5165V15.2493C14.625 13.6989 16.1402 12.4368 18 12.4368C19.8598 12.4368 21.375 13.6989 21.375 15.2493C21.375 16.3426 20.6016 17.3446 19.4027 17.8051C18.6574 18.0899 18.0246 18.5891 17.5711 19.243C17.1105 19.911 16.8715 20.7125 16.8715 21.5247V22.2805C16.8715 22.4352 16.998 22.5618 17.1527 22.5618H18.8402C18.9949 22.5618 19.1215 22.4352 19.1215 22.2805V21.4825C19.1233 21.1412 19.2279 20.8084 19.4217 20.5274C19.6155 20.2465 19.8894 20.0304 20.2078 19.9075C22.282 19.1094 23.6215 17.2813 23.6215 15.2493C23.625 13.8676 23.0203 12.5774 21.9234 11.6176ZM16.5938 26.218C16.5938 26.591 16.7419 26.9487 17.0056 27.2124C17.2694 27.4761 17.627 27.6243 18 27.6243C18.373 27.6243 18.7306 27.4761 18.9944 27.2124C19.2581 26.9487 19.4062 26.591 19.4062 26.218C19.4062 25.8451 19.2581 25.4874 18.9944 25.2236C18.7306 24.9599 18.373 24.8118 18 24.8118C17.627 24.8118 17.2694 24.9599 17.0056 25.2236C16.7419 25.4874 16.5938 25.8451 16.5938 26.218Z" fill="#868282"/>
</svg>
