<svg width="34" height="34" viewBox="0 0 34 34" fill="none" xmlns="http://www.w3.org/2000/svg">
<path fill-rule="evenodd" clip-rule="evenodd" d="M25.0208 28.6667C25.9878 28.6667 26.9151 28.2826 27.5988 27.5988C28.2826 26.9151 28.6667 25.9878 28.6667 25.0208C28.6667 24.0539 28.2826 23.1266 27.5988 22.4428C26.9151 21.7591 25.9878 21.375 25.0208 21.375C24.0539 21.375 23.1266 21.7591 22.4428 22.4428C21.7591 23.1266 21.375 24.0539 21.375 25.0208C21.375 25.9878 21.7591 26.9151 22.4428 27.5988C23.1266 28.2826 24.0539 28.6667 25.0208 28.6667ZM25.0208 30.125C26.3745 30.125 27.6728 29.5872 28.63 28.63C29.5872 27.6728 30.125 26.3745 30.125 25.0208C30.125 23.6671 29.5872 22.3689 28.63 21.4116C27.6728 20.4544 26.3745 19.9167 25.0208 19.9167C23.6671 19.9167 22.3689 20.4544 21.4116 21.4116C20.4544 22.3689 19.9167 23.6671 19.9167 25.0208C19.9167 26.3745 20.4544 27.6728 21.4116 28.63C22.3689 29.5872 23.6671 30.125 25.0208 30.125Z" fill="black"/>
<path fill-rule="evenodd" clip-rule="evenodd" d="M25.0208 22.4688C25.2142 22.4688 25.3997 22.5456 25.5364 22.6823C25.6732 22.8191 25.75 23.0045 25.75 23.1979V24.719L26.2655 25.2345C26.3983 25.372 26.4718 25.5562 26.4702 25.7474C26.4685 25.9386 26.3918 26.1214 26.2566 26.2566C26.1214 26.3918 25.9386 26.4685 25.7474 26.4702C25.5562 26.4718 25.372 26.3983 25.2345 26.2655L24.2917 25.3227V23.1979C24.2917 23.0045 24.3685 22.8191 24.5052 22.6823C24.642 22.5456 24.8274 22.4688 25.0208 22.4688ZM9.70833 16.2708H8.25V17.7292H9.70833V16.2708ZM8.25 14.8125C7.86323 14.8125 7.49229 14.9661 7.2188 15.2396C6.94531 15.5131 6.79167 15.8841 6.79167 16.2708V17.7292C6.79167 18.1159 6.94531 18.4869 7.2188 18.7604C7.49229 19.0339 7.86323 19.1875 8.25 19.1875H9.70833C10.0951 19.1875 10.466 19.0339 10.7395 18.7604C11.013 18.4869 11.1667 18.1159 11.1667 17.7292V16.2708C11.1667 15.8841 11.013 15.5131 10.7395 15.2396C10.466 14.9661 10.0951 14.8125 9.70833 14.8125H8.25ZM15.5417 16.2708H14.0833V17.7292H15.5417V16.2708ZM14.0833 14.8125C13.6966 14.8125 13.3256 14.9661 13.0521 15.2396C12.7786 15.5131 12.625 15.8841 12.625 16.2708V17.7292C12.625 18.1159 12.7786 18.4869 13.0521 18.7604C13.3256 19.0339 13.6966 19.1875 14.0833 19.1875H15.5417C15.9284 19.1875 16.2994 19.0339 16.5729 18.7604C16.8464 18.4869 17 18.1159 17 17.7292V16.2708C17 15.8841 16.8464 15.5131 16.5729 15.2396C16.2994 14.9661 15.9284 14.8125 15.5417 14.8125H14.0833ZM21.375 16.2708H19.9167V17.7292H21.375V16.2708ZM19.9167 14.8125C19.5299 14.8125 19.159 14.9661 18.8855 15.2396C18.612 15.5131 18.4583 15.8841 18.4583 16.2708V17.7292C18.4583 18.1159 18.612 18.4869 18.8855 18.7604C19.159 19.0339 19.5299 19.1875 19.9167 19.1875H21.375C21.7618 19.1875 22.1327 19.0339 22.4062 18.7604C22.6797 18.4869 22.8333 18.1159 22.8333 17.7292V16.2708C22.8333 15.8841 22.6797 15.5131 22.4062 15.2396C22.1327 14.9661 21.7618 14.8125 21.375 14.8125H19.9167ZM9.70833 22.1042H8.25V23.5625H9.70833V22.1042ZM8.25 20.6458C7.86323 20.6458 7.49229 20.7995 7.2188 21.073C6.94531 21.3465 6.79167 21.7174 6.79167 22.1042V23.5625C6.79167 23.9493 6.94531 24.3202 7.2188 24.5937C7.49229 24.8672 7.86323 25.0208 8.25 25.0208H9.70833C10.0951 25.0208 10.466 24.8672 10.7395 24.5937C11.013 24.3202 11.1667 23.9493 11.1667 23.5625V22.1042C11.1667 21.7174 11.013 21.3465 10.7395 21.073C10.466 20.7995 10.0951 20.6458 9.70833 20.6458H8.25ZM15.5417 22.1042H14.0833V23.5625H15.5417V22.1042ZM14.0833 20.6458C13.6966 20.6458 13.3256 20.7995 13.0521 21.073C12.7786 21.3465 12.625 21.7174 12.625 22.1042V23.5625C12.625 23.9493 12.7786 24.3202 13.0521 24.5937C13.3256 24.8672 13.6966 25.0208 14.0833 25.0208H15.5417C15.9284 25.0208 16.2994 24.8672 16.5729 24.5937C16.8464 24.3202 17 23.9493 17 23.5625V22.1042C17 21.7174 16.8464 21.3465 16.5729 21.073C16.2994 20.7995 15.9284 20.6458 15.5417 20.6458H14.0833Z" fill="black"/>
<path fill-rule="evenodd" clip-rule="evenodd" d="M5.33333 8.25C5.33333 8.05661 5.41016 7.87115 5.5469 7.7344C5.68365 7.59766 5.86911 7.52083 6.0625 7.52083H9.70833V6.0625H6.0625C5.48234 6.0625 4.92594 6.29297 4.5157 6.7032C4.10547 7.11344 3.875 7.66984 3.875 8.25V25.75C3.875 26.3302 4.10547 26.8866 4.5157 27.2968C4.92594 27.707 5.48234 27.9375 6.0625 27.9375H20.8318C20.5208 27.4921 20.2833 26.9998 20.1281 26.4792H6.0625C5.86911 26.4792 5.68365 26.4023 5.5469 26.2656C5.41016 26.1289 5.33333 25.9434 5.33333 25.75V8.25ZM24.2917 19.9677C24.7753 19.8985 25.2663 19.8985 25.75 19.9677V8.25C25.75 7.66984 25.5195 7.11344 25.1093 6.7032C24.6991 6.29297 24.1427 6.0625 23.5625 6.0625H21.375V7.52083H23.5625C23.7559 7.52083 23.9414 7.59766 24.0781 7.7344C24.2148 7.87115 24.2917 8.05661 24.2917 8.25V19.9677ZM11.1667 7.52083H18.8689V6.0625H11.1667V7.52083Z" fill="black"/>
<path fill-rule="evenodd" clip-rule="evenodd" d="M25.75 12.625H5.33333V11.1667H25.75V12.625Z" fill="black"/>
<path d="M8.25 4.60417C8.25 4.41078 8.32682 4.22531 8.46357 4.08857C8.60031 3.95182 8.78578 3.875 8.97917 3.875C9.17255 3.875 9.35802 3.95182 9.49477 4.08857C9.63151 4.22531 9.70833 4.41078 9.70833 4.60417V8.25C9.70833 8.44339 9.63151 8.62885 9.49477 8.7656C9.35802 8.90234 9.17255 8.97917 8.97917 8.97917C8.78578 8.97917 8.60031 8.90234 8.46357 8.7656C8.32682 8.62885 8.25 8.44339 8.25 8.25V4.60417ZM18.4583 4.60417C18.4583 4.41078 18.5352 4.22531 18.6719 4.08857C18.8086 3.95182 18.9941 3.875 19.1875 3.875C19.3809 3.875 19.5664 3.95182 19.7031 4.08857C19.8398 4.22531 19.9167 4.41078 19.9167 4.60417V8.25C19.9167 8.44339 19.8398 8.62885 19.7031 8.7656C19.5664 8.90234 19.3809 8.97917 19.1875 8.97917C18.9941 8.97917 18.8086 8.90234 18.6719 8.7656C18.5352 8.62885 18.4583 8.44339 18.4583 8.25V4.60417Z" fill="black"/>
</svg>
