<svg width="34" height="34" viewBox="0 0 34 34" fill="none" xmlns="http://www.w3.org/2000/svg">
<path d="M26.6428 16.0357C26.879 16.0358 27.107 16.1225 27.2835 16.2794C27.46 16.4364 27.5727 16.6526 27.6004 16.8872L27.6071 17V24.7143C27.6071 25.7039 27.2268 26.6556 26.5447 27.3726C25.8627 28.0897 24.9312 28.5171 23.9428 28.5666L23.75 28.5714H10.25C9.26037 28.5714 8.30864 28.1911 7.59161 27.5091C6.87458 26.827 6.44712 25.8955 6.39764 24.9071L6.39282 24.7143V17C6.39309 16.7542 6.48721 16.5178 6.65593 16.3391C6.82465 16.1604 7.05524 16.0529 7.3006 16.0384C7.54595 16.024 7.78755 16.1039 7.97602 16.2616C8.16449 16.4194 8.28562 16.6431 8.31464 16.8872L8.32139 17V24.7143C8.32148 25.2007 8.50535 25.6691 8.83616 26.0256C9.16698 26.3822 9.6203 26.6006 10.1053 26.6371L10.25 26.6429H23.75C24.2364 26.6428 24.7047 26.4589 25.0613 26.1281C25.4179 25.7973 25.6363 25.344 25.6727 24.8589L25.6785 24.7143V17C25.6785 16.7443 25.7801 16.499 25.961 16.3182C26.1418 16.1373 26.3871 16.0357 26.6428 16.0357ZM10.1815 11.8478L16.3182 5.71111C16.4843 5.54509 16.7052 5.44535 16.9395 5.43061C17.1739 5.41588 17.4055 5.48716 17.5911 5.63108L17.6817 5.71111L23.8184 11.8478C23.9914 12.0214 24.0918 12.2542 24.0993 12.4991C24.1067 12.744 24.0207 12.9825 23.8587 13.1663C23.6967 13.35 23.4708 13.4652 23.2269 13.4885C22.983 13.5117 22.7394 13.4412 22.5456 13.2914L22.4549 13.2113L17.9643 8.72065V20.8571C17.9642 21.0933 17.8775 21.3213 17.7206 21.4978C17.5636 21.6743 17.3473 21.7871 17.1128 21.8147L17 21.8214C16.7638 21.8214 16.5358 21.7347 16.3593 21.5777C16.1828 21.4208 16.0701 21.2045 16.0424 20.97L16.0357 20.8571V8.72065L11.545 13.2113C11.379 13.3774 11.158 13.4771 10.9237 13.4918C10.6893 13.5066 10.4577 13.4353 10.2721 13.2914L10.1815 13.2113C10.0155 13.0453 9.91574 12.8244 9.901 12.59C9.88627 12.3557 9.95754 12.124 10.1015 11.9385L10.1815 11.8478Z" fill="black"/>
</svg>
