<svg width="34" height="34" viewBox="0 0 34 34" fill="none" xmlns="http://www.w3.org/2000/svg">
<path fill-rule="evenodd" clip-rule="evenodd" d="M30.9532 7.79244C31.2909 7.79252 31.6147 7.92669 31.8534 8.16544C32.0922 8.4042 32.2264 8.728 32.2264 9.06566L32.2239 13.4521C32.2239 13.4533 32.2239 13.4544 32.224 13.4555C32.2245 13.7752 32.1047 14.0835 31.8882 14.3189C31.6709 14.5551 31.3724 14.7005 31.0525 14.7259L31.0497 14.7261C30.476 14.77 29.94 15.0289 29.549 15.451C29.1581 15.8729 28.9408 16.4267 28.9405 17.0018C28.9419 17.5767 29.16 18.13 29.5514 18.5512C29.9431 18.9726 30.4795 19.2307 31.0532 19.2737L31.0574 19.2741C31.3774 19.2995 31.6759 19.4448 31.8931 19.6811C32.1097 19.9166 32.2296 20.225 32.2289 20.5449C32.2289 20.5459 32.2289 20.5468 32.2289 20.5478L32.2289 24.9315C32.2288 25.2692 32.0947 25.5932 31.8559 25.832C31.6171 26.0708 31.2933 26.2049 30.9557 26.205L23.9612 26.205C23.9612 26.205 23.9613 26.205 23.9612 26.205C23.5482 26.205 23.1408 26.1089 22.7714 25.9243C22.6792 25.8784 22.5776 25.8547 22.4746 25.8548C22.3715 25.855 22.2699 25.8792 22.1778 25.9255L22.176 25.9264C21.8065 26.1112 21.3991 26.2076 20.9859 26.208L3.04699 26.2075C2.70937 26.2074 2.38535 26.0733 2.14657 25.8345C1.90779 25.5957 1.77364 25.2719 1.77357 24.9343L1.77357 20.5503C1.77357 20.5494 1.77357 20.5485 1.77356 20.5476C1.77284 20.2276 1.89272 19.9191 2.10935 19.6835C2.32661 19.4473 2.62512 19.3019 2.94504 19.2766L2.94841 19.2763C3.52229 19.2327 4.05853 18.974 4.44978 18.5519C4.84103 18.1298 5.05841 17.5755 5.05841 17C5.05841 16.4244 4.84103 15.8701 4.44978 15.448C4.05853 15.026 3.52229 14.7672 2.94841 14.7236L2.94504 14.7234C2.62512 14.698 2.32661 14.5526 2.10935 14.3164C1.89293 14.0811 1.77308 13.7729 1.77356 13.4533C1.77356 13.4521 1.77357 13.4509 1.77357 13.4496L1.77356 9.06589C1.77364 8.72824 1.90781 8.4042 2.14657 8.16544C2.38532 7.92669 2.70913 7.79252 3.04678 7.79244L20.9826 7.79443C21.3953 7.79483 21.8031 7.89102 22.1723 8.07542C22.2646 8.12141 22.3663 8.14527 22.4694 8.1451C22.5725 8.14492 22.6741 8.12073 22.7663 8.07443L22.7679 8.07362C23.1376 7.88868 23.5452 7.79241 23.9586 7.79244C23.9585 7.79244 23.9586 7.79244 23.9586 7.79244L30.9532 7.79244ZM21.472 9.95176C21.4071 9.92557 21.3431 9.89679 21.2802 9.86544L21.2789 9.86481C21.1866 9.81866 21.0849 9.79456 20.9817 9.79443C20.9816 9.79443 20.9818 9.79443 20.9817 9.79443L3.77356 9.79252L3.77356 12.835C4.59109 13.0309 5.33825 13.4645 5.91657 14.0884C6.65058 14.8803 7.05841 15.9202 7.05841 17C7.05841 18.0797 6.65058 19.1196 5.91657 19.9115C5.33825 20.5354 4.59108 20.9691 3.77356 21.165L3.77357 24.2075L20.984 24.208C20.984 24.208 20.984 24.208 20.984 24.208C21.0869 24.2079 21.1884 24.1839 21.2805 24.138C21.3433 24.1065 21.4072 24.0775 21.472 24.0512V23.0189C21.472 22.4666 21.9197 22.0189 22.472 22.0189C23.0243 22.0189 23.472 22.4666 23.472 23.0189V24.0482C23.5369 24.0743 23.6009 24.1031 23.6638 24.1345L23.6652 24.1352C23.757 24.1811 23.8583 24.205 23.9609 24.205L30.2289 24.205L30.2289 21.163C29.412 20.9678 28.6651 20.5353 28.0865 19.9128C27.3517 19.1222 26.9425 18.0835 26.9405 17.0042L26.9405 17.0023C26.9407 15.923 27.3483 14.8835 28.0819 14.0917C28.66 13.4678 29.4069 13.0339 30.2243 12.8377L30.226 9.79244L23.9586 9.79244C23.8559 9.79243 23.7545 9.81634 23.6627 9.86227L23.472 9.48107L23.472 9.94874C23.1553 10.0776 22.816 10.1445 22.4727 10.1451C22.1292 10.1457 21.7894 10.0798 21.472 9.95176ZM23.472 9.94874C23.5371 9.92225 23.6013 9.89314 23.6643 9.86146L23.472 9.47876L23.472 9.33934C23.472 8.96674 23.2682 8.64173 22.966 8.46969C22.9655 8.46939 22.965 8.46909 22.9645 8.4688C22.8191 8.38639 22.651 8.33934 22.472 8.33934C22.4712 8.33934 22.4705 8.33934 22.4697 8.33935C22.2901 8.33975 22.1217 8.38749 21.9761 8.47075M23.472 9.94874L23.472 10.981C23.472 11.5333 23.0243 11.981 22.472 11.981C21.9197 11.981 21.472 11.5333 21.472 10.981V9.95176M30.224 13.4609C30.224 13.4593 30.2239 13.4576 30.224 13.456L30.224 13.4609ZM30.2289 20.539L30.2289 20.5434C30.2289 20.5419 30.2289 20.5405 30.2289 20.539ZM22.4711 13.264C23.0233 13.2637 23.4713 13.7112 23.4715 14.2635L23.472 15.3578C23.4723 15.9101 23.0248 16.358 22.4725 16.3583C21.9202 16.3585 21.4723 15.911 21.472 15.3587L21.4715 14.2644C21.4713 13.7121 21.9188 13.2642 22.4711 13.264ZM22.4725 17.6417C23.0248 17.6419 23.4723 18.0898 23.472 18.6421L23.4715 19.7364C23.4713 20.2887 23.0233 20.7362 22.4711 20.736C21.9188 20.7357 21.4713 20.2878 21.4715 19.7355L21.472 18.6412C21.4723 18.0889 21.9202 17.6414 22.4725 17.6417Z" fill="black"/>
</svg>
